<?xml version="1.0" encoding="utf-8"?>
<!-- Generator: Adobe Illustrator 16.0.0, SVG Export Plug-In . SVG Version: 6.00 Build 0)  -->
<!DOCTYPE svg PUBLIC "-//W3C//DTD SVG 1.1//EN" "http://www.w3.org/Graphics/SVG/1.1/DTD/svg11.dtd">
<svg version="1.1" id="Camada_1" xmlns="http://www.w3.org/2000/svg" xmlns:xlink="http://www.w3.org/1999/xlink" x="0px" y="0px"
	 width="40px" height="40px" viewBox="0 0 40 40" enable-background="new 0 0 40 40" xml:space="preserve">
<g>
	<g>
		<g>
			<defs>
				<path id="SVGID_1_" d="M24.689,17.786l-0.48-0.479c-0.063-0.063-0.137-0.097-0.221-0.097c-0.082,0-0.156,0.032-0.221,0.097
					L20,21.074l-3.77-3.769c-0.063-0.063-0.139-0.097-0.222-0.097s-0.155,0.032-0.22,0.097l-0.479,0.479
					c-0.064,0.064-0.098,0.138-0.098,0.221s0.032,0.157,0.098,0.221l4.469,4.47c0.063,0.063,0.138,0.096,0.221,0.096
					s0.157-0.031,0.221-0.096l4.469-4.47c0.064-0.063,0.098-0.138,0.098-0.221S24.754,17.85,24.689,17.786"/>
			</defs>
			<clipPath id="SVGID_2_">
				<use xlink:href="#SVGID_1_"  overflow="visible"/>
			</clipPath>
			<g clip-path="url(#SVGID_2_)">
				<g>
					<g>
						<defs>
							<rect id="SVGID_3_" x="-233.5" y="-1.624" width="279" height="42"/>
						</defs>
						<clipPath id="SVGID_4_">
							<use xlink:href="#SVGID_3_"  overflow="visible"/>
						</clipPath>
						<rect x="10.213" y="12.209" clip-path="url(#SVGID_4_)" fill="#BFBFBF" width="19.572" height="15.582"/>
					</g>
				</g>
			</g>
		</g>
	</g>
</g>
</svg>
