<?xml version="1.0" encoding="utf-8"?>
<!-- Generator: Adobe Illustrator 16.0.0, SVG Export Plug-In . SVG Version: 6.00 Build 0)  -->
<!DOCTYPE svg PUBLIC "-//W3C//DTD SVG 1.1//EN" "http://www.w3.org/Graphics/SVG/1.1/DTD/svg11.dtd">
<svg version="1.1" id="Camada_1" xmlns="http://www.w3.org/2000/svg" xmlns:xlink="http://www.w3.org/1999/xlink" x="0px" y="0px"
	 width="35px" height="35px" viewBox="0 0 35 35" enable-background="new 0 0 35 35" xml:space="preserve">
<title>Group 14</title>
<desc>Created with Sketch.</desc>
<g>
	<path fill="#BFBFBF" d="M29.168,4.537h-5.187c-0.033,0-0.063,0.014-0.094,0.019c-0.22-0.762-0.816-1.315-1.525-1.315
		c-0.215,0-0.668-0.335-0.854-0.796l-0.332-0.833C20.813,0.708,19.77,0,18.797,0h-1.944c-0.972,0-2.018,0.708-2.38,1.611
		L14.14,2.443c-0.185,0.462-0.637,0.797-0.852,0.797c-0.703,0-1.297,0.544-1.521,1.296H5.834c-1.787,0-3.241,1.454-3.241,3.241
		V31.76c0,1.787,1.454,3.24,3.241,3.24h23.333c1.787,0,3.24-1.453,3.24-3.24V7.778C32.408,5.991,30.955,4.537,29.168,4.537z
		 M12.964,5.185c0-0.395,0.213-0.648,0.324-0.648c0.804,0,1.687-0.692,2.056-1.611l0.333-0.833c0.167-0.417,0.728-0.796,1.176-0.796
		h1.944c0.449,0,1.01,0.38,1.176,0.796l0.334,0.833c0.043,0.108,0.096,0.213,0.152,0.314h-1.014c-0.357,0-0.648,0.29-0.648,0.648
		s0.291,0.648,0.648,0.648h2.593c0.039,0,0.072-0.016,0.109-0.022c0.071,0.01,0.144,0.022,0.215,0.022
		c0.111,0,0.324,0.253,0.324,0.648v0.648c0,0.357-0.291,0.648-0.648,0.648h-8.426c-0.358,0-0.648-0.291-0.648-0.648V5.185z
		 M29.168,33.703H5.834c-1.072,0-1.944-0.872-1.944-1.943V7.778c0-1.072,0.872-1.944,1.944-1.944h5.833
		c0,1.072,0.872,1.944,1.944,1.944h8.426c1.071,0,1.944-0.873,1.944-1.944h5.186c1.072,0,1.943,0.872,1.943,1.944V31.76h0.002
		C31.112,32.831,30.239,33.703,29.168,33.703z"/>
	<path fill="#BFBFBF" d="M25.278,14.907h-5.186c-0.358,0-0.647,0.29-0.647,0.648s0.289,0.648,0.647,0.648h5.186
		c0.357,0,0.648-0.29,0.648-0.648S25.638,14.907,25.278,14.907z"/>
	<path fill="#BFBFBF" d="M25.278,25.926h-5.186c-0.358,0-0.647,0.29-0.647,0.648c0,0.357,0.289,0.648,0.647,0.648h5.186
		c0.357,0,0.648-0.291,0.648-0.648C25.927,26.216,25.638,25.926,25.278,25.926z"/>
	<path fill="#BFBFBF" d="M16.205,22.686H9.723c-0.358,0-0.648,0.289-0.648,0.648v6.48c0,0.358,0.29,0.647,0.648,0.647h6.482
		c0.358,0,0.648-0.289,0.648-0.647v-6.48C16.853,22.975,16.564,22.686,16.205,22.686z M15.557,29.166h-5.185V23.98h5.185V29.166z"/>
	<path fill="#BFBFBF" d="M16.205,11.667H9.723c-0.358,0-0.648,0.289-0.648,0.648v6.48c0,0.358,0.29,0.647,0.648,0.647h6.482
		c0.358,0,0.648-0.289,0.648-0.647v-6.48C16.853,11.956,16.564,11.667,16.205,11.667z M15.557,18.147h-5.185v-5.186h5.185V18.147z"
		/>
</g>
</svg>
