<?xml version="1.0" encoding="utf-8"?>
<!-- Generator: Adobe Illustrator 16.0.0, SVG Export Plug-In . SVG Version: 6.00 Build 0)  -->
<!DOCTYPE svg PUBLIC "-//W3C//DTD SVG 1.1//EN" "http://www.w3.org/Graphics/SVG/1.1/DTD/svg11.dtd">
<svg version="1.1" id="Camada_1" xmlns="http://www.w3.org/2000/svg" xmlns:xlink="http://www.w3.org/1999/xlink" x="0px" y="0px"
	 width="35px" height="35px" viewBox="-3 0 35 35" enable-background="new -3 0 35 35" xml:space="preserve">
<title>Group 17</title>
<desc>Created with Sketch.</desc>
<g id="Page-1">
	<g id="_x33_-Detalhes-da-consulta" transform="translate(-1419.000000, -616.000000)">
		<g id="Group-17" transform="translate(1419.000000, 616.000000)">
			<path id="Fill-1" fill="#BFBFBF" d="M15.201,3.677c0,0-0.535-0.025-1.35,0.115c-0.255-0.488-0.263-1.073-0.002-1.518
				c0.285-0.483,0.835-0.73,1.59-0.713c0.424,0.009,0.834,0.252,1.072,0.635c0.279,0.45,0.279,1.026,0.016,1.629
				C15.73,3.646,15.201,3.677,15.201,3.677 M23.099,11.301c-1.217-4.545-3.617-6.383-5.454-7.126
				c0.364-0.916,0.318-1.851-0.143-2.595c-0.442-0.713-1.223-1.168-2.036-1.186c-1.601-0.036-2.33,0.792-2.622,1.289
				c-0.416,0.707-0.462,1.606-0.151,2.39c-0.385,0.121-0.795,0.274-1.218,0.479c-1.929,0.93-4.094,2.841-5.136,6.764
				c-1.848,6.957-0.797,11.518-4.488,14.093c-0.938,0.479-1.407,1.032-1.409,1.681c-0.003,1.059,1.235,1.889,3.786,2.537
				c0.139,0.035,0.277,0.018,0.397-0.041c0.15-0.072,0.268-0.207,0.312-0.381c0.079-0.313-0.109-0.631-0.422-0.71
				c-2.374-0.603-2.907-1.229-2.906-1.402c0-0.114,0.271-0.51,1.504-0.963c0.238-0.086,0.379-0.313,0.376-0.554
				c1.999-1.949,2.378-4.623,2.832-7.845c0.252-1.795,0.54-3.83,1.146-6.115c0.776-2.919,2.295-4.942,4.516-6.013
				c1.671-0.806,3.155-0.761,3.163-0.761l0.063,0.002l0.053-0.002c0.197-0.007,4.869-0.117,6.711,6.761
				c0.646,2.412,0.892,4.523,1.107,6.385c0.313,2.684,0.523,4.857,1.822,6.682c-3.107-0.807-7.508-1.082-10.39-1.09
				c-2.84-0.01-5.565,0.174-7.88,0.529c-0.316,0.049-0.537,0.346-0.488,0.664s0.346,0.537,0.665,0.488
				c2.256-0.346,4.919-0.524,7.7-0.516c8.34,0.025,12.886,1.617,12.883,2.426c0,0.197-0.643,0.902-3.492,1.52
				c-2.508,0.545-5.848,0.838-9.406,0.826c-0.322,0-0.584,0.261-0.585,0.582c-0.001,0.322,0.259,0.584,0.581,0.586
				c3.641,0.011,7.071-0.292,9.657-0.854c1.215-0.264,2.172-0.564,2.883-0.906c1.023-0.494,1.528-1.074,1.531-1.75
				c0.001-0.634-0.469-1.164-1.25-1.605C23.594,22.692,24.961,18.263,23.099,11.301"/>
			<path id="Fill-4" fill="#BFBFBF" d="M10.161,33.216c-1.127,0.543-2.486,0.068-3.03-1.059c-0.543-1.127-0.068-2.486,1.058-3.029
				c1.128-0.544,2.487-0.069,3.03,1.058C11.763,31.313,11.288,32.672,10.161,33.216 M10.296,25.902
				c-0.313-0.067-0.624,0.132-0.693,0.447l-0.3,1.39c-0.542-0.021-1.098,0.086-1.621,0.338c-1.706,0.822-2.425,2.881-1.602,4.586
				c0.823,1.707,2.88,2.426,4.587,1.604c1.707-0.824,2.426-2.881,1.603-4.588c-0.388-0.806-1.054-1.388-1.826-1.694l0.3-1.389
				C10.811,26.28,10.611,25.971,10.296,25.902"/>
		</g>
	</g>
</g>
</svg>
