<?xml version="1.0" encoding="utf-8"?>
<!-- Generator: Adobe Illustrator 16.0.0, SVG Export Plug-In . SVG Version: 6.00 Build 0)  -->
<!DOCTYPE svg PUBLIC "-//W3C//DTD SVG 1.1//EN" "http://www.w3.org/Graphics/SVG/1.1/DTD/svg11.dtd">
<svg version="1.1" id="Camada_1" xmlns="http://www.w3.org/2000/svg" xmlns:xlink="http://www.w3.org/1999/xlink" x="0px" y="0px"
	 width="40px" height="25px" viewBox="0 0 40 25" enable-background="new 0 0 40 25" xml:space="preserve">
<g id="Clip-5">
</g>
<g>
	<path fill="#388CC7" d="M37.499,5.809c0-0.001,0-0.002-0.001-0.003c0-0.004-0.002-0.006-0.002-0.01c0,0-0.002-0.001-0.002-0.002
		c-0.001-0.004-0.005-0.008-0.008-0.01l-0.002-0.001c-0.002-0.004-0.003-0.008-0.006-0.009c-0.002-0.001-0.002-0.002-0.003-0.002
		c-0.002-0.003-0.005-0.006-0.007-0.008h-0.003c-0.001-0.001-0.004-0.002-0.006-0.004l-0.274-0.132c0,0-4.269-2.315-9.104-2.209
		c-1.345,0.012-3.2,0.163-5.05,0.747c-0.136,0.04-0.24,0.07-0.243,0.071c-0.002,0-0.003,0-0.005,0.001
		c-0.031,0.008-0.055,0.038-0.053,0.072c0,0.016,0.005,0.029,0.012,0.04c0.003,0.002,0.012,0.012,0.015,0.016
		c-0.003-0.002,0.415,0.402,0.653,0.646c0.457,0.471,0.974,1.037,1.505,1.654c0.533,0.619,1.083,1.291,1.627,1.963
		c0.548,0.669,1.09,1.338,1.62,1.949c0.153,0.173,0.305,0.342,0.454,0.506c0,0.001,0,0.001,0,0.001
		c0.007,0.011,0.009,0.025,0.009,0.04c0,0.041-0.03,0.074-0.072,0.074c-0.019,0-0.032-0.008-0.042-0.018
		c-0.061-0.058-0.118-0.115-0.175-0.172c-0.246-0.24-0.487-0.481-0.727-0.726c-0.121-0.12-0.2-0.202-0.2-0.202L25.528,8.16
		c-0.682-0.689-1.382-1.365-2.099-2.026c-0.722-0.658-1.46-1.298-2.245-1.895c-0.388-0.299-0.793-0.582-1.211-0.848
		c-0.417-0.265-0.848-0.514-1.297-0.736c-0.447-0.219-0.913-0.414-1.401-0.558c-0.483-0.146-0.992-0.242-1.506-0.256
		c-0.516-0.015-1.038,0.051-1.533,0.208c-0.493,0.154-0.954,0.399-1.364,0.704L12.86,2.768l-0.002,0.001
		c-0.133,0.119-0.254,0.254-0.354,0.408c-0.097,0.157-0.164,0.33-0.205,0.507C12.257,3.86,12.25,4.04,12.258,4.21
		c0.005,0.173,0.036,0.336,0.071,0.498c0.039,0.161,0.084,0.316,0.138,0.468c0.053,0.152,0.113,0.3,0.176,0.445
		c0.064,0.145,0.129,0.286,0.201,0.427c0.069,0.142,0.142,0.279,0.219,0.417c0.301,0.545,0.629,1.071,0.96,1.595
		c0.17,0.26,0.339,0.519,0.509,0.778l0.402,0.604l0.056,0.083c0.013,0.017,0.031,0.027,0.053,0.03h0.005h0.006
		c0.021,0,0.042-0.014,0.055-0.03c1.5-1.973,3.302-3.643,5.479-4.561c0-0.001,0-0.001,0.002-0.001s0.036-0.019,0.074,0.008
		c0.011,0.01,0.023,0.02,0.037,0.031c0.717,0.574,1.404,1.197,2.074,1.836c0.69,0.66,1.36,1.348,2.031,2.036l2.01,2.085
		c0.34,0.348,0.681,0.693,1.027,1.037c0.353,0.34,0.707,0.68,1.083,1.006c0.906,0.791,1.753,1.102,2.525,1.087
		c1.627,0,2.529-1.102,3.383-2.358c0.117-0.174,0.229-0.351,0.336-0.53c0.109-0.179,0.212-0.358,0.312-0.541
		c0.398-0.729,0.733-1.479,1.042-2.234c0.156-0.377,0.303-0.755,0.445-1.135c0.141-0.378,0.276-0.759,0.412-1.138l0.113-0.306
		c0-0.003,0-0.005,0.002-0.008c0-0.002,0.001-0.004,0.001-0.005C37.5,5.833,37.5,5.827,37.5,5.821
		C37.5,5.818,37.5,5.813,37.499,5.809z"/>
	<path fill="#388CC7" d="M28.372,17.182c0.002,0,0.012,0.002,0.012,0.002s-0.079-0.037-0.194-0.078
		c-0.034-0.01-0.068-0.022-0.101-0.033c-0.031-0.007-0.061-0.013-0.096-0.019c-0.093-0.017-0.186-0.029-0.276-0.033
		c-0.185-0.011-0.396-0.008-0.661,0.043c-0.36,0.062-0.791,0.163-1.276,0.286c-0.485,0.121-1.032,0.252-1.626,0.379
		c-0.596,0.123-1.243,0.238-1.928,0.318c-0.314,0.038-0.66,0.037-0.987,0.056c-0.002-0.001-0.006-0.004-0.006-0.004
		c-1.241-1.462-3.908-4.736-6.13-8.395C15.101,9.705,15.1,9.702,15.1,9.699c-0.001-0.002-0.003-0.004-0.004-0.005
		c-0.014-0.017-0.034-0.025-0.055-0.025h-0.008h-0.005c-0.019,0.002-0.035,0.012-0.048,0.027c0,0.002-0.001,0.002-0.002,0.004
		c-1.281,1.719-2.336,3.653-3.212,5.504c0,0-0.006,0.015-0.006,0.032c0.001,0.038,0.035,0.058,0.035,0.058l0.015,0.013
		c2.346,1.622,5.033,2.345,6.955,2.667c0,0,0.001,0.001,0.003,0.001c0.032,0.008,0.059,0.034,0.06,0.07
		c0.001,0.033-0.024,0.06-0.054,0.069c-0.332-0.024-0.668-0.057-1.004-0.102c-0.779-0.102-1.563-0.256-2.337-0.456
		c-0.022-0.007-0.049-0.017-0.072-0.023c-0.735-0.192-1.462-0.425-2.167-0.688c-0.013-0.004-0.026-0.008-0.038-0.01
		c-0.187-0.068-0.368-0.145-0.553-0.214c-0.092-0.037-0.179-0.075-0.271-0.11l-0.136-0.055l-0.068-0.03l-0.008-0.004
		c-0.004,0,0.011,0.005,0.001,0.001l-0.018-0.008l-0.034-0.013c-0.151-0.069-0.304-0.137-0.455-0.203
		c-0.025-0.012-0.054-0.027-0.079-0.038c-0.178-0.078-0.35-0.159-0.521-0.237c-0.686-0.322-1.353-0.653-1.983-0.966
		c-0.633-0.312-1.236-0.605-1.81-0.857c-0.287-0.122-0.563-0.24-0.834-0.335c-0.27-0.098-0.531-0.182-0.78-0.247
		c-0.25-0.062-0.49-0.109-0.714-0.132H4.891c-0.002,0-0.006-0.001-0.008-0.002c-0.01,0-0.018,0.001-0.026,0
		c-0.085-0.007-0.171-0.012-0.253-0.013c0,0-0.126-0.006-0.315,0.009c-0.009,0.002-0.019-0.001-0.025,0
		c-0.02,0.002-0.031,0.009-0.049,0.01c-0.15,0.017-0.33,0.048-0.519,0.103c-0.034,0.01-0.07,0.017-0.103,0.026
		c-0.087,0.03-0.168,0.071-0.255,0.111c-0.053,0.028-0.118,0.049-0.161,0.076c-0.005,0.003-0.011,0.007-0.015,0.011
		c-0.189,0.115-0.28,0.219-0.28,0.219s0.033-0.019,0.045-0.027c-0.243,0.23-0.422,0.547-0.425,1.015v0.068
		c-0.086,2.623,4.175,8.131,5.493,8.164c0.045,0.001,0.088-0.005,0.124-0.018c0.569-0.182,1.415-2.84,2.823-6.109l0.001-0.002
		c0.013-0.026,0.037-0.042,0.068-0.042c0.006,0,0.014,0.002,0.02,0.004l0.094,0.046c0.176,0.086,0.353,0.173,0.53,0.262l0.035,0.014
		l0.042,0.022l0.069,0.031l0.138,0.062c0.093,0.043,0.185,0.088,0.28,0.128c0.188,0.077,0.377,0.161,0.571,0.234
		c0.166,0.068,0.34,0.125,0.51,0.19c0.611,0.227,1.234,0.432,1.871,0.599c0.818,0.208,1.648,0.369,2.474,0.453
		c0.412,0.046,0.824,0.073,1.232,0.084c0.408,0.012,0.809,0.011,1.203-0.01c0.023-0.001,0.045-0.005,0.066-0.006
		c0.531-0.028,1.044-0.089,1.541-0.165c0.066-0.011,0.142-0.012,0.21-0.022c0,0,0.009-0.001,0.011-0.001
		c0.021,0,0.036,0.009,0.051,0.022l0.001,0.001l0.002,0.001c2.362,2.621,4.521,4.43,5.533,4.201c0.974-0.219,1.438-1.266,1.6-2.146
		c0.134-0.724,0.229-1.719,0.069-2.524C29.038,17.735,28.726,17.365,28.372,17.182z"/>
</g>
</svg>
